# xmcd
#
# Track frame offsets:
#	150
#	13825
#	32694
#	47047
#	59725
#	76942
#	90757
#	104917
#	120795
#	135090
#	150055
#	164072
#	181552
#	200632
#	217892
#
# Disc length: 3104 seconds
#
# Revision: 5
# Processed by: cddbd v1.5.2PL0 Copyright (c) Steve Scherf et al.
# Submitted via: audiograbber 1.83.01
#
DISCID=b30c1e0f
DTITLE=Various Artist - Pure Country - Best Of The 90's
DYEAR=1997
DGENRE=Oldies
TTITLE0=Diamond Rio - In A Week Or Two
TTITLE1=Vince Gill - No Future In The Past
TTITLE2=Lee Roy Parnell - Tender Moment
TTITLE3=Tracy Byrd - That's The Thing About A Memory
TTITLE4=Doug Supernaw - I Don't Call Him Daddy
TTITLE5=Marty Stuart - Kiss Me, I'm Gone
TTITLE6=Billy Dean - Billy The Kid
TTITLE7=Terry McBride and The Ride - Been There
TTITLE8=Pam Tillis - Shake The Sugar Tree
TTITLE9=Mavericks - There Goes My Heart
TTITLE10=Patty Loveless - I'm That Kind Of Girl
TTITLE11=John Anderson - When It Comes To You
TTITLE12=Mark Chesnutt - I'll Think Of Something
TTITLE13=Lorrie Morgan - Half Enough
TTITLE14=Mark Collie - Hard Lovin' Woman
EXTD=
EXTT0=
EXTT1=
EXTT2=
EXTT3=
EXTT4=
EXTT5=
EXTT6=
EXTT7=
EXTT8=
EXTT9=
EXTT10=
EXTT11=
EXTT12=
EXTT13=
EXTT14=
PLAYORDER=
